<svg aria-hidden="true" style="width:0;height:0;position:absolute;overflow:hidden" xmlns="http://www.w3.org/2000/svg"><defs><symbol id="mouse-scroll" viewBox="0 0 32 32"><path d="M11.392 10.496v4.608c0 2.534 2.074 4.608 4.608 4.608s4.608-2.074 4.608-4.608v-4.608c0-2.534-2.074-4.608-4.608-4.608s-4.608 2.074-4.608 4.608zM16 6.912a3.595 3.595 0 0 1 3.584 3.584v4.608c0 1.971-1.613 3.584-3.584 3.584s-3.584-1.613-3.584-3.584v-4.608A3.595 3.595 0 0 1 16 6.912z"/><path d="M16 11.264c.282 0 .512-.23.512-.512V9.216a.513.513 0 0 0-1.024 0v1.536c0 .282.23.512.512.512zM15.642 23.654c.102.102.23.154.358.154s.256-.051.358-.154l1.28-1.28c.205-.205.205-.512 0-.717s-.512-.205-.717 0l-.922.922-.922-.922c-.205-.205-.512-.205-.717 0s-.205.512 0 .717zM15.642 1.946l-1.28 1.28a.495.495 0 0 0 0 .717c.102.103.23.154.358.154s.256-.051.358-.154L16 3.021l.922.922c.102.102.23.154.358.154s.256-.051.358-.154a.495.495 0 0 0 0-.717l-1.28-1.28a.495.495 0 0 0-.717 0z"/></symbol><symbol id="map" viewBox="0 0 32 32"><path d="M22.178 18.783h-.005a.48.48 0 0 1-.406-.233l-4.547-7.636a.407.407 0 0 1-.033-.066 5.933 5.933 0 0 1-.866-3.091 5.977 5.977 0 0 1 5.969-5.96h.007c1.595.002 3.093.625 4.217 1.754s1.741 2.627 1.739 4.221a5.961 5.961 0 0 1-.862 3.075.422.422 0 0 1-.043.088l-4.766 7.623a.48.48 0 0 1-.406.224zm-4.092-8.285 4.101 6.888 4.297-6.873a.554.554 0 0 1 .041-.085 5.008 5.008 0 0 0 .771-2.656v-.001c.002-1.339-.516-2.598-1.46-3.546s-2.202-1.47-3.541-1.473h-.006a5.017 5.017 0 0 0-5.012 5.004c0 .942.265 1.861.766 2.657a.44.44 0 0 1 .042.084z"/><path d="M22.292 9.997h-.005c-.673 0-1.308-.263-1.784-.741s-.739-1.114-.738-1.789c.001-.673.264-1.307.742-1.783s1.11-.737 1.784-.737h.003a2.528 2.528 0 0 1 2.522 2.529 2.51 2.51 0 0 1-.742 1.785 2.508 2.508 0 0 1-1.781.737zm-.002-4.094c-.418 0-.812.163-1.108.458s-.46.689-.46 1.107c-.001.42.162.815.459 1.112s.69.46 1.108.46h.003c.418 0 .811-.162 1.107-.457s.46-.689.46-1.108a1.572 1.572 0 0 0-1.567-1.572h-.002zm2.047 1.573zM30.102 25.568H1.448a.477.477 0 0 1-.439-.667l5.212-12.194a.478.478 0 0 1 .44-.29h12.298a.478.478 0 1 1 0 .956H6.976L2.173 24.611h27.204l-4.655-10.89a.478.478 0 1 1 .88-.376l4.94 11.556a.478.478 0 0 1-.44.667z"/><path d="M22.234 25.482a.477.477 0 0 1-.474-.424c-.003-.024-.308-2.377-3.603-2.936-.306-.052-.795-.099-1.362-.154-3.118-.302-5.963-.693-6.511-2.151-.354-.941.163-1.658.578-2.234.455-.631.605-.906.372-1.302-.147-.251-.615-.455-1.068-.652-.886-.386-2.101-.916-2.107-2.367a.48.48 0 0 1 .476-.481h.002c.263 0 .477.213.478.476.004.772.582 1.079 1.533 1.494.593.259 1.206.526 1.511 1.045.569.971-.004 1.765-.422 2.345-.392.544-.624.9-.459 1.338.384 1.021 3.98 1.369 5.708 1.536.584.056 1.089.105 1.429.163 3.996.678 4.379 3.645 4.394 3.771a.478.478 0 0 1-.476.532z"/></symbol><symbol id="gear" viewBox="0 0 32 32"><path d="M5.826 2.475c-1.105.555-2.892 2.107-3.997 3.472-.211.266-.435.537-.489.604-.151.187-.676 1.045-.743 1.226-.121.32-.121.32 1.25 1.642a82.55 82.55 0 0 0 1.437 1.358c.368.332.894.821 1.177 1.081.29.26.749.67 1.032.906s.519.447.531.471c.012.024.229.199.483.392s.507.386.555.435c.302.29 1.371.827 1.932.972.151.036.386.109.531.157.411.139 1.793.272 2.626.26l.773-.012.706.7c.423.417.773.718.875.743.199.048.447-.097.531-.314.091-.241-.06-.477-.785-1.195l-.658-.658.03-.7c.06-1.528-.278-3.17-.936-4.462-.127-.248-.863-1.232-1.226-1.636-.145-.163-.32-.362-.386-.447-.441-.531-1.564-1.763-3.079-3.363-1.189-1.256-1.63-1.685-1.781-1.721-.091-.018-.248.018-.392.091zM6.98 4.45c.501.525 1.111 1.171 1.358 1.443.948 1.032 1.491 1.63 1.66 1.835.091.115.29.35.447.519.634.706 1.153 1.383 1.383 1.799.411.743.688 1.751.761 2.783.018.296.054.622.072.719.018.109.006.163-.036.151-.036-.012-1.497-1.455-3.254-3.212-2.814-2.808-3.212-3.182-3.375-3.182-.284 0-.501.205-.501.471 0 .235.048.29 4.848 5.072.851.851 1.552 1.576 1.552 1.606 0 .121-1.697-.103-2.469-.32-.978-.284-1.594-.652-2.717-1.63a459.86 459.86 0 0 0-.821-.7c-.199-.163-.435-.368-.519-.453s-.278-.26-.423-.386C3.751 9.896 1.692 7.916 1.692 7.837c0-.085.441-.706.845-1.195a18.591 18.591 0 0 1 2.204-2.216c.429-.362 1.195-.918 1.268-.924.036 0 .477.429.972.948z"/><path d="M25.691 2.415c-.103.042-1.624 1.6-2.596 2.663-.163.181-.507.543-.755.809a35.582 35.582 0 0 0-1.449 1.63 2.565 2.565 0 0 1-.235.272c-.018.018-.181.205-.356.423-.169.217-.368.447-.429.513-.169.181-.634.93-.791 1.268-.217.489-.531 1.685-.634 2.409a10.53 10.53 0 0 0-.085 1.503l.012.839-6.635 6.635c-3.647 3.647-6.654 6.635-6.672 6.635-.024 0-.072-.042-.115-.091-.091-.109-.417-.115-.555-.006-.139.103-.235.374-.181.513.066.181.924 1.038 1.129 1.123.199.091.423.03.549-.139.109-.139.103-.435-.006-.58-.085-.109.338-.543 6.545-6.75l6.629-6.629h.906c1.54 0 2.892-.266 3.973-.785.465-.223 1.57-1.014 2.149-1.534.151-.133.447-.405.664-.592.561-.495.755-.664 1.286-1.153a62.557 62.557 0 0 0 2.18-2.047c.465-.453.924-.9 1.026-.99.332-.308.211-.682-.561-1.745-1.117-1.546-3.508-3.725-4.559-4.166-.248-.103-.266-.103-.435-.03zm1.008 1.552a17.748 17.748 0 0 1 3.327 3.393c.157.211.284.417.284.459 0 .127-3.985 3.864-4.758 4.468a8.948 8.948 0 0 0-.465.399c-.453.411-1.22.96-1.57 1.117-.459.211-1.244.435-1.866.531-.773.121-1.546.181-1.546.121 0-.03 1.443-1.491 3.2-3.254 2.946-2.946 3.2-3.212 3.2-3.399a.505.505 0 0 0-.495-.495c-.175 0-.477.284-3.381 3.182-1.751 1.757-3.218 3.2-3.254 3.212s-.048-.066-.03-.211a13.9 13.9 0 0 0 .066-.749c.06-.833.344-1.89.682-2.566.199-.399.64-.984 1.552-2.041 1.365-1.588 4.22-4.619 4.359-4.625.042-.006.35.205.694.459z"/><path d="M17.22 18.795c-.223.115-.35.368-.284.555.036.085 2.131 2.228 4.667 4.758 4.341 4.347 4.595 4.613 4.51 4.721-.187.26-.048.706.248.779.085.024.223 0 .344-.06.229-.121.996-.9 1.075-1.099.06-.157-.024-.417-.175-.531-.139-.109-.465-.103-.555.006-.042.048-.091.091-.115.091-.018 0-2.089-2.053-4.595-4.565-3.894-3.894-4.782-4.74-4.963-4.734a.85.85 0 0 0-.157.078z"/></symbol><symbol id="users" viewBox="0 0 32 32"><path d="M20.373 3.067c-.966.216-1.654.569-2.457 1.26-.356.307-.367.312-.805.361-.711.081-1.236.294-1.858.755-.368.273-.709.608-.9.887l-.116.171-.252-.079c-1.483-.46-3.763-.526-5.384-.156-1.027.236-2.109.704-2.894 1.254a6.96 6.96 0 0 1-.72.445c-.294.14-.474.312-.535.512-.021.072-.16.276-.308.454-.559.67-1.111 1.634-1.431 2.501-1.147 3.103-.878 7.68.696 11.818l.211.556-.201.244c-.705.855-1.087 1.754-1.266 2.981-.08.547-.085.688-.028.899.104.388.366.711.728.897l.313.16 7.627.014c8.693.016 8.012.05 8.495-.433.215-.215.295-.344.367-.591.088-.306.088-.34-.023-1.013a18.06 18.06 0 0 0-.145-.815l-.032-.118 4.686-.016c5.245-.017 4.887.01 5.317-.404.476-.46.556-.999.281-1.904a6.542 6.542 0 0 0-1.659-2.775c-.818-.83-1.623-1.317-2.903-1.755-.809-.278-.848-.296-1.218-.577-.494-.376-.983-1.133-1.052-1.627-.027-.19-.014-.211.269-.44.389-.313.836-.85 1.18-1.414.481-.793.731-1.585.823-2.612.077-.869.135-.947.752-1.014.373-.041.621-.197.761-.48.09-.182.108-.351.126-1.154.039-1.792-.118-2.766-.607-3.765-.709-1.448-2.007-2.536-3.518-2.949-.557-.153-1.801-.195-2.32-.078zm1.869 2.031c1.138.334 2.087 1.327 2.435 2.547.048.166.09.622.106 1.155l.028.88-.252.131a2.835 2.835 0 0 0-.927.838c-.27.408-.382.785-.438 1.481-.082 1.01-.208 1.426-.627 2.068-.315.481-.643.812-1.155 1.166-.544.376-.638.573-.596 1.242.103 1.624 1.091 3.188 2.517 3.984.206.115.674.308 1.04.43 1.09.362 1.657.69 2.288 1.321.346.346.748.928.939 1.36l.132.299h-4.693c-3.718 0-4.692-.014-4.692-.067 0-.036.07-.239.156-.45.383-.938.835-2.467 1.071-3.616.323-1.578.454-3.002.409-4.446-.048-1.524-.215-2.533-.62-3.744-.544-1.627-1.544-3.044-2.803-3.972-.235-.173-.439-.323-.453-.335-.056-.043.409-.394.73-.553.314-.154.362-.162.775-.136.697.045.835-.01 1.284-.506.58-.64 1.238-1.037 1.922-1.16.362-.065 1.059-.024 1.424.083zM11.924 8.057c.998.097 1.866.329 2.111.564.082.079.292.179.493.235.425.117.892.439 1.44.991.951.957 1.569 2.257 1.845 3.878.159.94.163.921-.171.965-.153.02-.639.057-1.08.082-4.35.245-8.297-1.502-9.697-4.293-.139-.276-.358-.899-.358-1.016 0-.095.487-.432 1.013-.701 1.194-.611 2.776-.864 4.404-.705zm-6.835 5.841c.018 2.799.033 2.951.38 3.915.31.862.833 1.665 1.528 2.346l.463.454-.098.276c-.121.342-.375.716-.616.91-.22.177-1.422.711-1.481.657-.077-.07-.461-1.285-.672-2.125-.802-3.202-.768-6.354.091-8.411.248-.593.291-.673.341-.623.025.025.054 1.196.064 2.601zm2.591.483c1.236.907 2.665 1.551 4.4 1.985.569.142 1.556.313 2.067.357.467.041.475.052.319.45-.325.835-.827 1.452-1.701 2.094-.401.294-.466.467-.43 1.156.045.869.328 1.591.908 2.322.491.619.935.93 1.957 1.365a4.147 4.147 0 0 1 1.84 1.514c.242.364.56 1.105.56 1.305 0 .041-1.96.058-6.693.058-5.727 0-6.694-.011-6.694-.076 0-.165.211-.736.391-1.058.253-.452.808-1.044 1.264-1.347.203-.135.624-.351.936-.48.935-.386 1.486-.813 1.988-1.537.419-.606.701-1.513.701-2.257 0-.492-.123-.724-.559-1.051-.719-.54-1.173-1.095-1.47-1.793-.279-.656-.324-.942-.354-2.268l-.028-1.227.152.137c.084.075.285.233.446.351zm10.271 2.672c-.155 1.816-.631 3.967-1.197 5.412l-.057.145-.308-.153c-.17-.084-.465-.217-.656-.297-.654-.272-1.092-.724-1.31-1.352l-.068-.195.498-.491c.837-.824 1.41-1.798 1.674-2.84.062-.247.143-.468.18-.491.036-.024.21-.045.386-.048.258-.005.779-.062.873-.096.011-.004.004.179-.015.406z"/></symbol><symbol id="fullscreen" viewBox="0 0 32 32"><path d="M4.563 8.25v3.688h1.25l.006-2.644V6.656l6.431 6.494.438-.431c.244-.244.431-.463.425-.5-.012-.037-1.45-1.469-3.2-3.188L6.738 5.906l2.6-.019 2.6-.013V4.561H4.563v3.688zM20.063 5.188v.625l2.644.006h2.637L18.85 12.25l.431.438c.244.244.462.431.5.425.038-.012 1.469-1.45 3.188-3.2l3.125-3.175.019 2.6.012 2.6h1.313V4.563h-7.375v.625zM9.019 22.113l-3.2 3.231V22.7l-.006-2.637h-1.25v7.375h7.375v-1.313l-2.6-.012-2.6-.019 3.175-3.125c1.75-1.719 3.194-3.15 3.206-3.175.019-.056-.8-.919-.869-.919-.019 0-1.469 1.456-3.231 3.238zM19.288 19.306c-.238.238-.419.456-.406.488.012.025 1.456 1.456 3.206 3.175l3.175 3.125-2.6.019-2.6.012v1.313h7.375v-7.375h-1.25l-.006 2.637v2.644l-3.2-3.238c-1.762-1.775-3.219-3.231-3.238-3.231-.012 0-.219.194-.456.431z"/></symbol><symbol id="keyboard-arrows" viewBox="0 0 32 32"><path d="M18.501 20.132h-5.002c-.579 0-1.05-.471-1.05-1.05v-5c0-.579.471-1.05 1.05-1.05h5.003c.579 0 1.05.471 1.05 1.05v5.002c0 .579-.471 1.047-1.05 1.047zm-5.002-6.715a.668.668 0 0 0-.666.666v5.002c0 .366.299.666.666.666h5.003a.668.668 0 0 0 .666-.666v-5.003a.668.668 0 0 0-.666-.666z"/><path d="M16 18.422a.227.227 0 0 1-.197-.115l-.709-1.229c-.041-.072-.041-.156 0-.228s.115-.115.2-.115h.425V15.03c0-.156.128-.284.284-.284s.284.128.284.284v1.705h.425c.082 0 .156.044.2.115a.227.227 0 0 1 0 .228l-.709 1.229a.24.24 0 0 1-.202.115zm-.709-1.495c-.018 0-.028.01-.033.018s-.01.021 0 .036l.709 1.229c.018.031.046.031.064 0l.709-1.229c.01-.015.005-.031 0-.036s-.013-.018-.033-.018h-.617V15.03c0-.051-.041-.092-.092-.092s-.092.041-.092.092v1.897zM16 7.178c.082 0 .156.044.197.115l.709 1.229c.041.072.041.156 0 .228s-.115.115-.2.115h-.425v1.705c0 .156-.128.284-.284.284s-.284-.128-.284-.284V8.865h-.425a.235.235 0 0 1-.2-.115.227.227 0 0 1 0-.228l.709-1.229a.24.24 0 0 1 .202-.115zm.709 1.495c.018 0 .028-.01.033-.018s.01-.021 0-.036l-.709-1.229c-.018-.031-.046-.031-.064 0l-.709 1.229c-.01.015-.005.031 0 .036s.013.018.033.018h.617v1.897c0 .051.041.092.092.092s.092-.041.092-.092V8.673zM26.12 20.132h-5.002c-.579 0-1.05-.471-1.05-1.05v-5c0-.579.471-1.05 1.05-1.05h5.003c.579 0 1.05.471 1.05 1.05v5.002c0 .579-.471 1.047-1.05 1.047zm-5.002-6.715a.668.668 0 0 0-.666.666v5.002c0 .366.299.666.666.666h5.003a.668.668 0 0 0 .666-.666v-5.003a.668.668 0 0 0-.666-.666z"/><path d="M24 17.521a.231.231 0 0 1-.23-.231v-.425h-1.705c-.156 0-.284-.128-.284-.284s.128-.284.284-.284h1.705v-.425c0-.082.044-.156.115-.2a.227.227 0 0 1 .228 0l1.231.711a.232.232 0 0 1 0 .4l-1.229.709a.254.254 0 0 1-.115.028zm-1.935-1.029c-.051 0-.092.041-.092.092s.041.092.092.092h1.897v.617c0 .018.013.028.018.033.008.005.021.01.036 0l1.229-.709c.015-.01.018-.023.018-.031s-.003-.023-.018-.031l-1.229-.709c-.015-.01-.031-.005-.036 0a.035.035 0 0 0-.018.033v.617h-1.897zM10.882 20.132H5.88c-.579 0-1.05-.471-1.05-1.05v-5c0-.579.471-1.05 1.05-1.05h5.003c.579 0 1.05.471 1.05 1.05v5.002a1.05 1.05 0 0 1-1.05 1.047zM5.88 13.417a.668.668 0 0 0-.666.666v5.002c0 .366.299.666.666.666h5.003a.668.668 0 0 0 .666-.666v-5.003a.668.668 0 0 0-.666-.666z"/><path d="M8 17.521a.231.231 0 0 1-.115-.031l-1.229-.709a.232.232 0 0 1 0-.4l1.229-.709a.227.227 0 0 1 .228 0 .226.226 0 0 1 .115.2v.425h1.708c.156 0 .284.128.284.284s-.128.284-.284.284H8.228v.425a.232.232 0 0 1-.228.231zm-.021-1.68-1.229.709c-.015.01-.018.023-.018.031s.003.023.018.031l1.229.709c.015.01.031.005.036 0a.035.035 0 0 0 .018-.033v-.617h1.899c.051 0 .092-.041.092-.092s-.041-.092-.092-.092H8.033v-.617a.037.037 0 0 0-.018-.033c-.005.002-.018-.003-.036.005zM13.499 5.466h5.003c.579 0 1.05.471 1.05 1.05v5.002c0 .579-.471 1.05-1.05 1.05h-5.003c-.579 0-1.05-.471-1.05-1.05V6.516c0-.579.471-1.05 1.05-1.05zm5.002 6.717a.668.668 0 0 0 .666-.666V6.514a.668.668 0 0 0-.666-.666h-5.003a.668.668 0 0 0-.666.666v5.003c0 .366.299.666.666.666z"/></symbol><symbol id="modal-close-light" viewBox="0 0 32 32"><path d="M7.552 4.353c-4.666 4.665-4.666 12.23 0 16.895s12.23 4.666 16.896 0 4.666-12.23 0-16.896-12.23-4.665-16.896 0zm15.847 15.846c-4.08 4.08-10.718 4.08-14.798 0s-4.08-10.718 0-14.798 10.718-4.08 14.798 0 4.079 10.719 0 14.798zM12.629 8.38 11.58 9.429l3.371 3.371-3.371 3.371 1.049 1.049L16 13.849l3.371 3.371 1.049-1.049-3.371-3.371 3.371-3.371-1.049-1.049L16 11.751z"/></symbol><symbol id="modal-close-bold" viewBox="0 0 32 32"><path d="M4.688 4.688A15.953 15.953 0 0 1 16.004.001c8.839 0 16.004 7.165 16.004 16.004s-7.165 16.004-16.004 16.004C7.165 32.009 0 24.844 0 16.005v-.019c0-4.414 1.792-8.409 4.688-11.298zm15.465 5.469 1.701 1.703a1.04 1.04 0 0 1 0 1.466l-2.685 2.675 2.685 2.685a1.04 1.04 0 0 1 0 1.466l-1.701 1.701a1.04 1.04 0 0 1-1.466 0l-2.685-2.685-2.685 2.685a1.04 1.04 0 0 1-1.466 0l-1.693-1.701a1.04 1.04 0 0 1 0-1.466l2.677-2.685-2.677-2.685a1.04 1.04 0 0 1 0-1.466l1.693-1.693a1.04 1.04 0 0 1 1.466 0l2.685 2.677 2.685-2.677a1.04 1.04 0 0 1 1.466 0zm-4.152-7.412c-7.322 0-13.258 5.936-13.258 13.259s5.936 13.259 13.259 13.259 13.259-5.936 13.259-13.259c0-3.662-1.484-6.976-3.884-9.376a13.197 13.197 0 0 0-9.367-3.883H16z"/></symbol><symbol id="modal-close-romb" viewBox="0 0 32 32"><path d="M26.906 10.701 22.81 6.605l-.896.896 4.096 4.096c.717.717.768 1.843.102 2.509l-4.096 4.096.896.896 4.096-4.096c1.152-1.126 1.101-3.072-.102-4.301zM14.669 2.688c.666-.666 1.792-.614 2.509.102l4.096 4.096.896-.896-4.096-4.096c-1.229-1.229-3.149-1.28-4.301-.102L9.677 5.888l.896.896zm-8.653 11.29a1.846 1.846 0 0 1-.563-1.306 1.58 1.58 0 0 1 .461-1.203l4.096-4.096-.896-.896-4.096 4.096c-.563.563-.87 1.331-.845 2.15s.358 1.587.947 2.15l4.096 4.096.896-.896zm11.29 8.934c-.307.307-.742.461-1.203.461a2.092 2.092 0 0 1-1.306-.563l-4.096-4.096-.896.896 4.096 4.096a3.186 3.186 0 0 0 2.15.947h.102c.794 0 1.51-.307 2.048-.845l4.096-4.096-.896-.896zm2.15-14.643L16 11.725l-3.456-3.456-1.075 1.075 3.456 3.456-3.456 3.456 1.075 1.075L16 13.875l3.456 3.456 1.075-1.075-3.456-3.456 3.456-3.456z"/><symbol id="play-video" viewBox="0 0 32 32"><path d="M5.284 2.831c-.907.199-1.535.638-2.014 1.416s-.478.748-.478 8.952c0 7.606 0 7.736.199 7.935.11.11.329.199.498.199s.389-.09.498-.199c.199-.199.199-.329.199-7.855 0-7.247.01-7.666.189-8.055.1-.229.359-.538.568-.698l.369-.289h21.274l.369.289c.209.16.469.469.568.698.179.389.189.807.189 8.055 0 7.526 0 7.656.199 7.855a.737.737 0 0 0 .997 0c.199-.199.199-.289.179-8.155l-.03-7.945-.249-.488c-.498-.977-1.266-1.545-2.343-1.745-.877-.159-20.446-.14-21.184.03z"/><path d="M13.926 10.736c-.419.11-.469.469-.469 3.389 0 1.525.03 2.871.06 3.001.08.269.578.548.837.469.11-.03 1.306-.708 2.662-1.495 3.499-2.024 3.499-1.864-.01-3.898-2.472-1.435-2.741-1.555-3.08-1.465zM.558 22.839c-.239.189-.259.259-.259 1.037 0 .618.06.997.219 1.416.289.768 1.037 1.515 1.804 1.804l.578.219h26.098l.578-.219c.768-.289 1.515-1.037 1.804-1.804.16-.419.219-.797.219-1.406 0-1.306.419-1.196-4.915-1.236-3.3-.02-4.576.01-4.785.09a.679.679 0 0 0-.06 1.236c.229.13.967.15 4.326.15h4.057l-.07.319c-.11.498-.349.857-.788 1.156l-.389.269H15.956c-12.8 0-13.029 0-13.348-.199-.389-.239-.778-.778-.867-1.226l-.07-.319h4.047c2.213 0 4.147-.04 4.277-.09s.289-.229.359-.389c.1-.249.1-.349-.03-.598-.08-.16-.259-.319-.379-.359-.13-.03-2.233-.06-4.675-.06-4.346 0-4.456 0-4.715.209z"/><path d="M13.159 22.759c-.528.269-.488 1.057.07 1.276.159.06 1.266.09 2.901.07 2.632-.03 2.632-.03 2.821-.269.239-.299.239-.618 0-.917l-.189-.239-2.682-.03c-2.014-.02-2.731.01-2.921.11z"/></symbol><symbol id="play-youtube" viewBox="0 0 32 32"><path d="M14.26 3a51.03 51.03 0 0 0-9.811 1.432c-1.443.354-1.865.525-2.253.878-.582.536-.736.89-1.027 2.39-.525 2.664-.73 4.786-.73 7.472 0 2.784.222 5.037.781 7.78.234 1.129.416 1.569.861 2.014.433.428.816.593 2.139.924a51.018 51.018 0 0 0 8.014 1.329c2.128.183 5.607.183 7.758-.006a50.02 50.02 0 0 0 8.003-1.318c1.335-.325 1.751-.502 2.168-.918.433-.433.605-.838.776-1.82.896-5.219.896-10.98-.006-15.943-.171-.964-.371-1.397-.827-1.831-.445-.422-.747-.553-2.008-.873-3.93-.998-7.518-1.472-11.499-1.512a77.223 77.223 0 0 0-2.339 0zm.091 6.834c.405.262 1.032.673 1.392.907l3.451 2.247c2.481 1.62 2.493 1.62 2.573 1.82a.9.9 0 0 1 0 .73c-.091.211.171.034-4.227 2.915-.439.285-1.301.856-1.911 1.255-2.219 1.466-2.19 1.449-2.555 1.226-.371-.228-.354.017-.354-5.733 0-5.67-.011-5.465.314-5.721.297-.234.502-.177 1.318.354z"/></symbol></symbol></defs></svg>