<svg aria-hidden="true" style="position: absolute; width: 0; height: 0; overflow: hidden;" version="1.1" xmlns="http://www.w3.org/2000/svg" xmlns:xlink="http://www.w3.org/1999/xlink">
<defs>
<symbol id="mouse-scroll" viewBox="0 0 32 32">
<path d="M11.392 10.496v4.608c0 2.534 2.074 4.608 4.608 4.608s4.608-2.074 4.608-4.608v-4.608c0-2.534-2.074-4.608-4.608-4.608s-4.608 2.074-4.608 4.608zM16 6.912c1.971 0 3.584 1.613 3.584 3.584v4.608c0 1.971-1.613 3.584-3.584 3.584s-3.584-1.613-3.584-3.584v-4.608c0-1.971 1.613-3.584 3.584-3.584z"></path>
<path d="M16 11.264c0.282 0 0.512-0.23 0.512-0.512v-1.536c0-0.282-0.23-0.512-0.512-0.512s-0.512 0.23-0.512 0.512v1.536c0 0.282 0.23 0.512 0.512 0.512z"></path>
<path d="M15.642 23.654c0.102 0.102 0.23 0.154 0.358 0.154s0.256-0.051 0.358-0.154l1.28-1.28c0.205-0.205 0.205-0.512 0-0.717s-0.512-0.205-0.717 0l-0.922 0.922-0.922-0.922c-0.205-0.205-0.512-0.205-0.717 0s-0.205 0.512 0 0.717z"></path>
<path d="M15.642 1.946l-1.28 1.28c-0.205 0.205-0.205 0.512 0 0.717 0.102 0.103 0.23 0.154 0.358 0.154s0.256-0.051 0.358-0.154l0.922-0.922 0.922 0.922c0.102 0.102 0.23 0.154 0.358 0.154s0.256-0.051 0.358-0.154c0.205-0.205 0.205-0.512 0-0.717l-1.28-1.28c-0.205-0.205-0.512-0.205-0.717-0z"></path>
</symbol>
<symbol id="map" viewBox="0 0 32 32">
<path d="M22.178 18.783c-0.002 0-0.003 0-0.005 0-0.167-0.002-0.32-0.090-0.406-0.233l-4.547-7.636c-0.013-0.021-0.024-0.043-0.033-0.066-0.567-0.931-0.866-1.997-0.866-3.091 0.006-3.288 2.683-5.96 5.969-5.96 0.003 0 0.005 0 0.007 0 1.595 0.002 3.093 0.625 4.217 1.754s1.741 2.627 1.739 4.221v0c0 1.077-0.298 2.138-0.862 3.075-0.011 0.031-0.025 0.060-0.043 0.088l-4.766 7.623c-0.088 0.139-0.241 0.224-0.406 0.224zM18.086 10.498l4.101 6.888 4.297-6.873c0.011-0.029 0.025-0.058 0.041-0.085 0.504-0.806 0.771-1.724 0.771-2.656 0-0 0-0 0-0.001 0.002-1.339-0.516-2.598-1.46-3.546s-2.202-1.47-3.541-1.473c-0.002 0-0.004 0-0.006 0-2.76 0-5.008 2.243-5.012 5.004 0 0.942 0.265 1.861 0.766 2.657 0.017 0.026 0.031 0.055 0.042 0.084z"></path>
<path d="M22.292 9.997c-0.002 0-0.003 0-0.005 0-0.673 0-1.308-0.263-1.784-0.741s-0.739-1.114-0.738-1.789c0.001-0.673 0.264-1.307 0.742-1.783s1.11-0.737 1.784-0.737c0.001 0 0.002 0 0.003 0 1.392 0.002 2.524 1.136 2.522 2.529v0c-0.001 0.674-0.264 1.308-0.742 1.785-0.477 0.475-1.109 0.737-1.781 0.737zM22.29 5.903c-0.418 0-0.812 0.163-1.108 0.458s-0.46 0.689-0.46 1.107c-0.001 0.42 0.162 0.815 0.459 1.112s0.69 0.46 1.108 0.46c0.001 0 0.002 0 0.003 0 0.418 0 0.811-0.162 1.107-0.457s0.46-0.689 0.46-1.108c0.001-0.865-0.702-1.571-1.567-1.572-0-0-0.001-0-0.002-0zM24.337 7.476v0z"></path>
<path d="M30.102 25.568h-28.654c-0.161 0-0.311-0.081-0.399-0.215s-0.104-0.304-0.040-0.452l5.212-12.194c0.075-0.176 0.248-0.29 0.44-0.29h12.298c0.264 0 0.478 0.214 0.478 0.478s-0.214 0.478-0.478 0.478h-11.983l-4.803 11.238h27.204l-4.655-10.89c-0.104-0.243 0.009-0.524 0.252-0.628s0.524 0.009 0.628 0.252l4.94 11.556c0.063 0.148 0.048 0.318-0.041 0.452s-0.239 0.215-0.399 0.215z"></path>
<path d="M22.234 25.482c-0.24 0-0.447-0.18-0.474-0.424-0.003-0.024-0.308-2.377-3.603-2.936-0.306-0.052-0.795-0.099-1.362-0.154-3.118-0.302-5.963-0.693-6.511-2.151-0.354-0.941 0.163-1.658 0.578-2.234 0.455-0.631 0.605-0.906 0.372-1.302-0.147-0.251-0.615-0.455-1.068-0.652-0.886-0.386-2.101-0.916-2.107-2.367-0.001-0.264 0.212-0.479 0.476-0.481 0.001 0 0.002 0 0.002 0 0.263 0 0.477 0.213 0.478 0.476 0.004 0.772 0.582 1.079 1.533 1.494 0.593 0.259 1.206 0.526 1.511 1.045 0.569 0.971-0.004 1.765-0.422 2.345-0.392 0.544-0.624 0.9-0.459 1.338 0.384 1.021 3.98 1.369 5.708 1.536 0.584 0.056 1.089 0.105 1.429 0.163 3.996 0.678 4.379 3.645 4.394 3.771 0.030 0.262-0.158 0.499-0.421 0.529-0.018 0.002-0.037 0.003-0.055 0.003z"></path>
</symbol>
<symbol id="gear" viewBox="0 0 32 32">
<path d="M5.826 2.475c-1.105 0.555-2.892 2.107-3.997 3.472-0.211 0.266-0.435 0.537-0.489 0.604-0.151 0.187-0.676 1.045-0.743 1.226-0.121 0.32-0.121 0.32 1.25 1.642 0.429 0.417 1.075 1.026 1.437 1.358 0.368 0.332 0.894 0.821 1.177 1.081 0.29 0.26 0.749 0.67 1.032 0.906s0.519 0.447 0.531 0.471c0.012 0.024 0.229 0.199 0.483 0.392s0.507 0.386 0.555 0.435c0.302 0.29 1.371 0.827 1.932 0.972 0.151 0.036 0.386 0.109 0.531 0.157 0.411 0.139 1.793 0.272 2.626 0.26l0.773-0.012 0.706 0.7c0.423 0.417 0.773 0.718 0.875 0.743 0.199 0.048 0.447-0.097 0.531-0.314 0.091-0.241-0.060-0.477-0.785-1.195l-0.658-0.658 0.030-0.7c0.060-1.528-0.278-3.17-0.936-4.462-0.127-0.248-0.863-1.232-1.226-1.636-0.145-0.163-0.32-0.362-0.386-0.447-0.441-0.531-1.564-1.763-3.079-3.363-1.189-1.256-1.63-1.685-1.781-1.721-0.091-0.018-0.248 0.018-0.392 0.091zM6.98 4.45c0.501 0.525 1.111 1.171 1.358 1.443 0.948 1.032 1.491 1.63 1.66 1.835 0.091 0.115 0.29 0.35 0.447 0.519 0.634 0.706 1.153 1.383 1.383 1.799 0.411 0.743 0.688 1.751 0.761 2.783 0.018 0.296 0.054 0.622 0.072 0.719 0.018 0.109 0.006 0.163-0.036 0.151-0.036-0.012-1.497-1.455-3.254-3.212-2.814-2.808-3.212-3.182-3.375-3.182-0.284 0-0.501 0.205-0.501 0.471 0 0.235 0.048 0.29 4.848 5.072 0.851 0.851 1.552 1.576 1.552 1.606 0 0.121-1.697-0.103-2.469-0.32-0.978-0.284-1.594-0.652-2.717-1.63-0.254-0.217-0.622-0.531-0.821-0.7-0.199-0.163-0.435-0.368-0.519-0.453s-0.278-0.26-0.423-0.386c-1.195-1.069-3.254-3.049-3.254-3.128 0-0.085 0.441-0.706 0.845-1.195 0.622-0.749 1.437-1.57 2.204-2.216 0.429-0.362 1.195-0.918 1.268-0.924 0.036 0 0.477 0.429 0.972 0.948z"></path>
<path d="M25.691 2.415c-0.103 0.042-1.624 1.6-2.596 2.663-0.163 0.181-0.507 0.543-0.755 0.809-0.58 0.616-1.201 1.322-1.449 1.63-0.103 0.133-0.211 0.254-0.235 0.272-0.018 0.018-0.181 0.205-0.356 0.423-0.169 0.217-0.368 0.447-0.429 0.513-0.169 0.181-0.634 0.93-0.791 1.268-0.217 0.489-0.531 1.685-0.634 2.409-0.060 0.399-0.091 1.002-0.085 1.503l0.012 0.839-6.635 6.635c-3.647 3.647-6.654 6.635-6.672 6.635-0.024 0-0.072-0.042-0.115-0.091-0.091-0.109-0.417-0.115-0.555-0.006-0.139 0.103-0.235 0.374-0.181 0.513 0.066 0.181 0.924 1.038 1.129 1.123 0.199 0.091 0.423 0.030 0.549-0.139 0.109-0.139 0.103-0.435-0.006-0.58-0.085-0.109 0.338-0.543 6.545-6.75l6.629-6.629h0.906c1.54 0 2.892-0.266 3.973-0.785 0.465-0.223 1.57-1.014 2.149-1.534 0.151-0.133 0.447-0.405 0.664-0.592 0.561-0.495 0.755-0.664 1.286-1.153 1.026-0.93 1.365-1.25 2.18-2.047 0.465-0.453 0.924-0.9 1.026-0.99 0.332-0.308 0.211-0.682-0.561-1.745-1.117-1.546-3.508-3.725-4.559-4.166-0.248-0.103-0.266-0.103-0.435-0.030zM26.699 3.967c1.159 0.881 2.445 2.186 3.327 3.393 0.157 0.211 0.284 0.417 0.284 0.459 0 0.127-3.985 3.864-4.758 4.468-0.091 0.066-0.296 0.248-0.465 0.399-0.453 0.411-1.22 0.96-1.57 1.117-0.459 0.211-1.244 0.435-1.866 0.531-0.773 0.121-1.546 0.181-1.546 0.121 0-0.030 1.443-1.491 3.2-3.254 2.946-2.946 3.2-3.212 3.2-3.399 0-0.266-0.229-0.495-0.495-0.495-0.175 0-0.477 0.284-3.381 3.182-1.751 1.757-3.218 3.2-3.254 3.212s-0.048-0.066-0.030-0.211c0.018-0.133 0.048-0.465 0.066-0.749 0.060-0.833 0.344-1.89 0.682-2.566 0.199-0.399 0.64-0.984 1.552-2.041 1.365-1.588 4.22-4.619 4.359-4.625 0.042-0.006 0.35 0.205 0.694 0.459z"></path>
<path d="M17.22 18.795c-0.223 0.115-0.35 0.368-0.284 0.555 0.036 0.085 2.131 2.228 4.667 4.758 4.341 4.347 4.595 4.613 4.51 4.721-0.187 0.26-0.048 0.706 0.248 0.779 0.085 0.024 0.223 0 0.344-0.060 0.229-0.121 0.996-0.9 1.075-1.099 0.060-0.157-0.024-0.417-0.175-0.531-0.139-0.109-0.465-0.103-0.555 0.006-0.042 0.048-0.091 0.091-0.115 0.091-0.018 0-2.089-2.053-4.595-4.565-3.894-3.894-4.782-4.74-4.963-4.734-0.012 0-0.085 0.036-0.157 0.078z"></path>
</symbol>
<symbol id="users" viewBox="0 0 32 32">
<path d="M20.373 3.067c-0.966 0.216-1.654 0.569-2.457 1.26-0.356 0.307-0.367 0.312-0.805 0.361-0.711 0.081-1.236 0.294-1.858 0.755-0.368 0.273-0.709 0.608-0.9 0.887l-0.116 0.171-0.252-0.079c-1.483-0.46-3.763-0.526-5.384-0.156-1.027 0.236-2.109 0.704-2.894 1.254-0.25 0.174-0.574 0.375-0.72 0.445-0.294 0.14-0.474 0.312-0.535 0.512-0.021 0.072-0.16 0.276-0.308 0.454-0.559 0.67-1.111 1.634-1.431 2.501-1.147 3.103-0.878 7.68 0.696 11.818l0.211 0.556-0.201 0.244c-0.705 0.855-1.087 1.754-1.266 2.981-0.080 0.547-0.085 0.688-0.028 0.899 0.104 0.388 0.366 0.711 0.728 0.897l0.313 0.16 7.627 0.014c8.693 0.016 8.012 0.050 8.495-0.433 0.215-0.215 0.295-0.344 0.367-0.591 0.088-0.306 0.088-0.34-0.023-1.013-0.062-0.384-0.128-0.75-0.145-0.815l-0.032-0.118 4.686-0.016c5.245-0.017 4.887 0.010 5.317-0.404 0.476-0.46 0.556-0.999 0.281-1.904-0.324-1.070-0.859-1.963-1.659-2.775-0.818-0.83-1.623-1.317-2.903-1.755-0.809-0.278-0.848-0.296-1.218-0.577-0.494-0.376-0.983-1.133-1.052-1.627-0.027-0.19-0.014-0.211 0.269-0.44 0.389-0.313 0.836-0.85 1.18-1.414 0.481-0.793 0.731-1.585 0.823-2.612 0.077-0.869 0.135-0.947 0.752-1.014 0.373-0.041 0.621-0.197 0.761-0.48 0.090-0.182 0.108-0.351 0.126-1.154 0.039-1.792-0.118-2.766-0.607-3.765-0.709-1.448-2.007-2.536-3.518-2.949-0.557-0.153-1.801-0.195-2.32-0.078zM22.242 5.098c1.138 0.334 2.087 1.327 2.435 2.547 0.048 0.166 0.090 0.622 0.106 1.155l0.028 0.88-0.252 0.131c-0.325 0.169-0.721 0.526-0.927 0.838-0.27 0.408-0.382 0.785-0.438 1.481-0.082 1.010-0.208 1.426-0.627 2.068-0.315 0.481-0.643 0.812-1.155 1.166-0.544 0.376-0.638 0.573-0.596 1.242 0.103 1.624 1.091 3.188 2.517 3.984 0.206 0.115 0.674 0.308 1.040 0.43 1.090 0.362 1.657 0.69 2.288 1.321 0.346 0.346 0.748 0.928 0.939 1.36l0.132 0.299h-4.693c-3.718 0-4.692-0.014-4.692-0.067 0-0.036 0.070-0.239 0.156-0.45 0.383-0.938 0.835-2.467 1.071-3.616 0.323-1.578 0.454-3.002 0.409-4.446-0.048-1.524-0.215-2.533-0.62-3.744-0.544-1.627-1.544-3.044-2.803-3.972-0.235-0.173-0.439-0.323-0.453-0.335-0.056-0.043 0.409-0.394 0.73-0.553 0.314-0.154 0.362-0.162 0.775-0.136 0.697 0.045 0.835-0.010 1.284-0.506 0.58-0.64 1.238-1.037 1.922-1.16 0.362-0.065 1.059-0.024 1.424 0.083zM11.924 8.057c0.998 0.097 1.866 0.329 2.111 0.564 0.082 0.079 0.292 0.179 0.493 0.235 0.425 0.117 0.892 0.439 1.44 0.991 0.951 0.957 1.569 2.257 1.845 3.878 0.159 0.94 0.163 0.921-0.171 0.965-0.153 0.020-0.639 0.057-1.080 0.082-4.35 0.245-8.297-1.502-9.697-4.293-0.139-0.276-0.358-0.899-0.358-1.016 0-0.095 0.487-0.432 1.013-0.701 1.194-0.611 2.776-0.864 4.404-0.705zM5.089 13.898c0.018 2.799 0.033 2.951 0.38 3.915 0.31 0.862 0.833 1.665 1.528 2.346l0.463 0.454-0.098 0.276c-0.121 0.342-0.375 0.716-0.616 0.91-0.22 0.177-1.422 0.711-1.481 0.657-0.077-0.070-0.461-1.285-0.672-2.125-0.802-3.202-0.768-6.354 0.091-8.411 0.248-0.593 0.291-0.673 0.341-0.623 0.025 0.025 0.054 1.196 0.064 2.601zM7.68 14.381c1.236 0.907 2.665 1.551 4.4 1.985 0.569 0.142 1.556 0.313 2.067 0.357 0.467 0.041 0.475 0.052 0.319 0.45-0.325 0.835-0.827 1.452-1.701 2.094-0.401 0.294-0.466 0.467-0.43 1.156 0.045 0.869 0.328 1.591 0.908 2.322 0.491 0.619 0.935 0.93 1.957 1.365 0.762 0.325 1.396 0.847 1.84 1.514 0.242 0.364 0.56 1.105 0.56 1.305 0 0.041-1.96 0.058-6.693 0.058-5.727 0-6.694-0.011-6.694-0.076 0-0.165 0.211-0.736 0.391-1.058 0.253-0.452 0.808-1.044 1.264-1.347 0.203-0.135 0.624-0.351 0.936-0.48 0.935-0.386 1.486-0.813 1.988-1.537 0.419-0.606 0.701-1.513 0.701-2.257 0-0.492-0.123-0.724-0.559-1.051-0.719-0.54-1.173-1.095-1.47-1.793-0.279-0.656-0.324-0.942-0.354-2.268l-0.028-1.227 0.152 0.137c0.084 0.075 0.285 0.233 0.446 0.351zM17.951 17.053c-0.155 1.816-0.631 3.967-1.197 5.412l-0.057 0.145-0.308-0.153c-0.17-0.084-0.465-0.217-0.656-0.297-0.654-0.272-1.092-0.724-1.31-1.352l-0.068-0.195 0.498-0.491c0.837-0.824 1.41-1.798 1.674-2.84 0.062-0.247 0.143-0.468 0.18-0.491 0.036-0.024 0.21-0.045 0.386-0.048 0.258-0.005 0.779-0.062 0.873-0.096 0.011-0.004 0.004 0.179-0.015 0.406z"></path>
</symbol>
<symbol id="fullscreen" viewBox="0 0 32 32">
<path d="M4.563 8.25v3.688h1.25l0.006-2.644v-2.638l6.431 6.494 0.438-0.431c0.244-0.244 0.431-0.463 0.425-0.5-0.012-0.037-1.45-1.469-3.2-3.188l-3.175-3.125 2.6-0.019 2.6-0.013v-1.313h-7.375v3.688z"></path>
<path d="M20.063 5.188v0.625l2.644 0.006h2.637l-6.494 6.431 0.431 0.438c0.244 0.244 0.462 0.431 0.5 0.425 0.038-0.012 1.469-1.45 3.188-3.2l3.125-3.175 0.019 2.6 0.012 2.6h1.313v-7.375h-7.375v0.625z"></path>
<path d="M9.019 22.113l-3.2 3.231v-2.644l-0.006-2.637h-1.25v7.375h7.375v-1.313l-2.6-0.012-2.6-0.019 3.175-3.125c1.75-1.719 3.194-3.15 3.206-3.175 0.019-0.056-0.8-0.919-0.869-0.919-0.019 0-1.469 1.456-3.231 3.238z"></path>
<path d="M19.288 19.306c-0.238 0.238-0.419 0.456-0.406 0.488 0.012 0.025 1.456 1.456 3.206 3.175l3.175 3.125-2.6 0.019-2.6 0.012v1.313h7.375v-7.375h-1.25l-0.006 2.637v2.644l-3.2-3.238c-1.762-1.775-3.219-3.231-3.238-3.231-0.012 0-0.219 0.194-0.456 0.431z"></path>
</symbol>
<symbol id="keyboard-arrows" viewBox="0 0 32 32">
<path d="M18.501 20.132h-5.002c-0.579 0-1.050-0.471-1.050-1.050v-5c0-0.579 0.471-1.050 1.050-1.050h5.003c0.579 0 1.050 0.471 1.050 1.050v5.002c-0 0.579-0.471 1.047-1.050 1.047zM13.499 13.417c-0.366 0-0.666 0.299-0.666 0.666v5.002c0 0.366 0.299 0.666 0.666 0.666h5.003c0.366 0 0.666-0.299 0.666-0.666v-5.003c0-0.366-0.299-0.666-0.666-0.666z"></path>
<path d="M16 18.422c-0.082 0-0.156-0.044-0.197-0.115l-0.709-1.229c-0.041-0.072-0.041-0.156 0-0.228s0.115-0.115 0.2-0.115h0.425v-1.705c0-0.156 0.128-0.284 0.284-0.284s0.284 0.128 0.284 0.284v1.705h0.425c0.082 0 0.156 0.044 0.2 0.115 0.041 0.072 0.041 0.156 0 0.228l-0.709 1.229c-0.046 0.072-0.12 0.115-0.202 0.115zM15.291 16.927c-0.018 0-0.028 0.010-0.033 0.018s-0.010 0.021 0 0.036l0.709 1.229c0.018 0.031 0.046 0.031 0.064 0l0.709-1.229c0.010-0.015 0.005-0.031 0-0.036s-0.013-0.018-0.033-0.018h-0.617v-1.897c0-0.051-0.041-0.092-0.092-0.092s-0.092 0.041-0.092 0.092v1.897z"></path>
<path d="M16 7.178c0.082 0 0.156 0.044 0.197 0.115l0.709 1.229c0.041 0.072 0.041 0.156 0 0.228s-0.115 0.115-0.2 0.115h-0.425v1.705c0 0.156-0.128 0.284-0.284 0.284s-0.284-0.128-0.284-0.284v-1.705h-0.425c-0.082 0-0.156-0.044-0.2-0.115-0.041-0.072-0.041-0.156 0-0.228l0.709-1.229c0.046-0.072 0.12-0.115 0.202-0.115zM16.709 8.673c0.018 0 0.028-0.010 0.033-0.018s0.010-0.021 0-0.036l-0.709-1.229c-0.018-0.031-0.046-0.031-0.064 0l-0.709 1.229c-0.010 0.015-0.005 0.031 0 0.036s0.013 0.018 0.033 0.018h0.617v1.897c0 0.051 0.041 0.092 0.092 0.092s0.092-0.041 0.092-0.092v-1.897z"></path>
<path d="M26.12 20.132h-5.002c-0.579 0-1.050-0.471-1.050-1.050v-5c0-0.579 0.471-1.050 1.050-1.050h5.003c0.579 0 1.050 0.471 1.050 1.050v5.002c-0 0.579-0.471 1.047-1.050 1.047zM21.118 13.417c-0.366 0-0.666 0.299-0.666 0.666v5.002c0 0.366 0.299 0.666 0.666 0.666h5.003c0.366 0 0.666-0.299 0.666-0.666v-5.003c0-0.366-0.299-0.666-0.666-0.666z"></path>
<path d="M24 17.521c-0.038 0-0.079-0.010-0.115-0.031-0.072-0.041-0.115-0.115-0.115-0.2v-0.425h-1.705c-0.156 0-0.284-0.128-0.284-0.284s0.128-0.284 0.284-0.284h1.705v-0.425c0-0.082 0.044-0.156 0.115-0.2 0.072-0.041 0.156-0.041 0.228 0l1.231 0.711c0.072 0.041 0.115 0.115 0.115 0.2s-0.044 0.156-0.115 0.2l-1.229 0.709c-0.036 0.018-0.074 0.028-0.115 0.028zM22.065 16.492c-0.051 0-0.092 0.041-0.092 0.092s0.041 0.092 0.092 0.092h1.897v0.617c0 0.018 0.013 0.028 0.018 0.033 0.008 0.005 0.021 0.010 0.036 0l1.229-0.709c0.015-0.010 0.018-0.023 0.018-0.031s-0.003-0.023-0.018-0.031l-1.229-0.709c-0.015-0.010-0.031-0.005-0.036 0-0.008 0.005-0.018 0.013-0.018 0.033v0.617h-1.897z"></path>
<path d="M10.882 20.132h-5.002c-0.579 0-1.050-0.471-1.050-1.050v-5c0-0.579 0.471-1.050 1.050-1.050h5.003c0.579 0 1.050 0.471 1.050 1.050v5.002c-0.003 0.579-0.471 1.047-1.050 1.047zM5.88 13.417c-0.366 0-0.666 0.299-0.666 0.666v5.002c0 0.366 0.299 0.666 0.666 0.666h5.003c0.366 0 0.666-0.299 0.666-0.666v-5.003c0-0.366-0.299-0.666-0.666-0.666z"></path>
<path d="M8 17.521c-0.038 0-0.079-0.010-0.115-0.031l-1.229-0.709c-0.072-0.041-0.115-0.115-0.115-0.2s0.044-0.156 0.115-0.2l1.229-0.709c0.072-0.041 0.159-0.041 0.228 0 0.072 0.041 0.115 0.115 0.115 0.2v0.425h1.708c0.156 0 0.284 0.128 0.284 0.284s-0.128 0.284-0.284 0.284h-1.708v0.425c0 0.082-0.044 0.156-0.115 0.2-0.036 0.020-0.074 0.031-0.113 0.031zM7.979 15.841l-1.229 0.709c-0.015 0.010-0.018 0.023-0.018 0.031s0.003 0.023 0.018 0.031l1.229 0.709c0.015 0.010 0.031 0.005 0.036 0 0.008-0.005 0.018-0.013 0.018-0.033v-0.617h1.899c0.051 0 0.092-0.041 0.092-0.092s-0.041-0.092-0.092-0.092h-1.899v-0.617c0-0.018-0.010-0.028-0.018-0.033-0.005 0.002-0.018-0.003-0.036 0.005z"></path>
<path d="M13.499 5.466h5.003c0.579 0 1.050 0.471 1.050 1.050v5.002c0 0.579-0.471 1.050-1.050 1.050l-5.003-0c-0.579 0-1.050-0.471-1.050-1.050v-5.002c0-0.579 0.471-1.050 1.050-1.050zM18.501 12.183c0.366 0 0.666-0.299 0.666-0.666l0-5.003c0-0.366-0.299-0.666-0.666-0.666h-5.003c-0.366 0-0.666 0.299-0.666 0.666v5.003c0 0.366 0.299 0.666 0.666 0.666z"></path>
</symbol>
<symbol id="modal-close-light" viewBox="0 0 32 32">
<path d="M7.552 4.353c-4.666 4.665-4.666 12.23 0 16.895s12.23 4.666 16.896 0c4.666-4.666 4.666-12.23 0-16.896s-12.23-4.665-16.896 0zM23.399 20.199c-4.080 4.080-10.718 4.080-14.798 0s-4.080-10.718 0-14.798c4.080-4.080 10.718-4.080 14.798 0s4.079 10.719-0 14.798zM12.629 8.38l-1.049 1.049 3.371 3.371-3.371 3.371 1.049 1.049 3.371-3.371 3.371 3.371 1.049-1.049-3.371-3.371 3.371-3.371-1.049-1.049-3.371 3.371z"></path>
</symbol>
<symbol id="modal-close-bold" viewBox="0 0 32 32">
<path d="M4.688 4.688c2.896-2.896 6.897-4.687 11.316-4.687 8.839 0 16.004 7.165 16.004 16.004s-7.165 16.004-16.004 16.004c-8.839 0-16.004-7.165-16.004-16.004 0-0.001 0-0.002 0-0.004v0c0-0.004 0-0.010 0-0.015 0-4.414 1.792-8.409 4.688-11.298l0-0zM20.153 10.157l1.701 1.703c0.186 0.188 0.302 0.447 0.302 0.733s-0.115 0.545-0.302 0.733l0-0-2.685 2.675 2.685 2.685c0.186 0.188 0.302 0.447 0.302 0.733s-0.115 0.545-0.302 0.733l-1.701 1.701c-0.188 0.186-0.447 0.302-0.733 0.302s-0.545-0.115-0.733-0.302l-2.685-2.685-2.685 2.685c-0.188 0.186-0.447 0.302-0.733 0.302s-0.545-0.115-0.733-0.302l0 0-1.693-1.701c-0.186-0.188-0.302-0.447-0.302-0.733s0.115-0.545 0.302-0.733l-0 0 2.677-2.685-2.677-2.685c-0.186-0.188-0.302-0.447-0.302-0.733s0.115-0.545 0.302-0.733l1.693-1.693c0.188-0.186 0.447-0.302 0.733-0.302s0.545 0.115 0.733 0.302l-0-0 2.685 2.677 2.685-2.677c0.188-0.186 0.447-0.302 0.733-0.302s0.545 0.115 0.733 0.302l-0-0zM16.001 2.745c-7.322 0-13.258 5.936-13.258 13.259s5.936 13.259 13.259 13.259 13.259-5.936 13.259-13.259c0-3.662-1.484-6.976-3.884-9.376v0c-2.396-2.399-5.708-3.883-9.367-3.883-0.003 0-0.006 0-0.010 0h0z"></path>
</symbol>
<symbol id="modal-close-romb" viewBox="0 0 32 32">
<path d="M26.906 10.701l-4.096-4.096-0.896 0.896 4.096 4.096c0.717 0.717 0.768 1.843 0.102 2.509l-4.096 4.096 0.896 0.896 4.096-4.096c1.152-1.126 1.101-3.072-0.102-4.301zM14.669 2.688c0.666-0.666 1.792-0.614 2.509 0.102l4.096 4.096 0.896-0.896-4.096-4.096c-1.229-1.229-3.149-1.28-4.301-0.102l-4.096 4.096 0.896 0.896zM6.016 13.978c-0.358-0.358-0.563-0.819-0.563-1.306-0.026-0.461 0.154-0.896 0.461-1.203l4.096-4.096-0.896-0.896-4.096 4.096c-0.563 0.563-0.87 1.331-0.845 2.15s0.358 1.587 0.947 2.15l4.096 4.096 0.896-0.896zM17.306 22.912c-0.307 0.307-0.742 0.461-1.203 0.461-0.486-0.026-0.947-0.23-1.306-0.563l-4.096-4.096-0.896 0.896 4.096 4.096c0.589 0.589 1.357 0.922 2.15 0.947h0.102c0.794 0 1.51-0.307 2.048-0.845l4.096-4.096-0.896-0.896zM19.456 8.269l-3.456 3.456-3.456-3.456-1.075 1.075 3.456 3.456-3.456 3.456 1.075 1.075 3.456-3.456 3.456 3.456 1.075-1.075-3.456-3.456 3.456-3.456z"></path>
<symbol id="play-video" viewBox="0 0 32 32">
<path d="M5.284 2.831c-0.907 0.199-1.535 0.638-2.014 1.416s-0.478 0.748-0.478 8.952c0 7.606 0 7.736 0.199 7.935 0.11 0.11 0.329 0.199 0.498 0.199s0.389-0.090 0.498-0.199c0.199-0.199 0.199-0.329 0.199-7.855 0-7.247 0.010-7.666 0.189-8.055 0.1-0.229 0.359-0.538 0.568-0.698l0.369-0.289h21.274l0.369 0.289c0.209 0.16 0.469 0.469 0.568 0.698 0.179 0.389 0.189 0.807 0.189 8.055 0 7.526 0 7.656 0.199 7.855 0.259 0.259 0.738 0.259 0.997 0 0.199-0.199 0.199-0.289 0.179-8.155l-0.030-7.945-0.249-0.488c-0.498-0.977-1.266-1.545-2.343-1.745-0.877-0.159-20.446-0.14-21.184 0.030z"></path>
<path d="M13.926 10.736c-0.419 0.11-0.469 0.469-0.469 3.389 0 1.525 0.030 2.871 0.060 3.001 0.080 0.269 0.578 0.548 0.837 0.469 0.11-0.030 1.306-0.708 2.662-1.495 3.499-2.024 3.499-1.864-0.010-3.898-2.472-1.435-2.741-1.555-3.080-1.465z"></path>
<path d="M0.558 22.839c-0.239 0.189-0.259 0.259-0.259 1.037 0 0.618 0.060 0.997 0.219 1.416 0.289 0.768 1.037 1.515 1.804 1.804l0.578 0.219h26.098l0.578-0.219c0.768-0.289 1.515-1.037 1.804-1.804 0.16-0.419 0.219-0.797 0.219-1.406 0-1.306 0.419-1.196-4.915-1.236-3.3-0.020-4.576 0.010-4.785 0.090-0.548 0.229-0.578 0.967-0.060 1.236 0.229 0.13 0.967 0.15 4.326 0.15h4.057l-0.070 0.319c-0.11 0.498-0.349 0.857-0.788 1.156l-0.389 0.269h-13.019c-12.8 0-13.029 0-13.348-0.199-0.389-0.239-0.778-0.778-0.867-1.226l-0.070-0.319h4.047c2.213 0 4.147-0.040 4.277-0.090s0.289-0.229 0.359-0.389c0.1-0.249 0.1-0.349-0.030-0.598-0.080-0.16-0.259-0.319-0.379-0.359-0.13-0.030-2.233-0.060-4.675-0.060-4.346 0-4.456 0-4.715 0.209z"></path>
<path d="M13.159 22.759c-0.528 0.269-0.488 1.057 0.070 1.276 0.159 0.060 1.266 0.090 2.901 0.070 2.632-0.030 2.632-0.030 2.821-0.269 0.239-0.299 0.239-0.618 0-0.917l-0.189-0.239-2.682-0.030c-2.014-0.020-2.731 0.010-2.921 0.11z"></path>
</symbol>
<symbol id="play-youtube" viewBox="0 0 32 32">
<path d="M14.26 3c-3.36 0.165-6.605 0.639-9.811 1.432-1.443 0.354-1.865 0.525-2.253 0.878-0.582 0.536-0.736 0.89-1.027 2.39-0.525 2.664-0.73 4.786-0.73 7.472 0 2.784 0.222 5.037 0.781 7.78 0.234 1.129 0.416 1.569 0.861 2.014 0.433 0.428 0.816 0.593 2.139 0.924 2.692 0.667 5.191 1.078 8.014 1.329 2.128 0.183 5.607 0.183 7.758-0.006 2.829-0.245 5.168-0.627 8.003-1.318 1.335-0.325 1.751-0.502 2.168-0.918 0.433-0.433 0.605-0.838 0.776-1.82 0.896-5.219 0.896-10.98-0.006-15.943-0.171-0.964-0.371-1.397-0.827-1.831-0.445-0.422-0.747-0.553-2.008-0.873-3.93-0.998-7.518-1.472-11.499-1.512-1.050-0.011-2.105-0.011-2.339 0zM14.351 9.834c0.405 0.262 1.032 0.673 1.392 0.907 0.781 0.508 2.419 1.574 3.451 2.247 2.481 1.62 2.493 1.62 2.573 1.82 0.103 0.24 0.103 0.491 0 0.73-0.091 0.211 0.171 0.034-4.227 2.915-0.439 0.285-1.301 0.856-1.911 1.255-2.219 1.466-2.19 1.449-2.555 1.226-0.371-0.228-0.354 0.017-0.354-5.733 0-5.67-0.011-5.465 0.314-5.721 0.297-0.234 0.502-0.177 1.318 0.354z"></path>
</symbol>
</defs>
</svg>
